<svg width="32" height="40" viewBox="0 0 32 40" fill="none" xmlns="http://www.w3.org/2000/svg">
<path d="M22.19 25.75H11.54C10.55 25.75 9.59999 25.33 8.92999 24.6C8.25999 23.87 7.92 22.89 8 21.9L8.83 11.94C8.86 11.63 8.74999 11.33 8.53999 11.1C8.32999 10.87 8.04 10.75 7.73 10.75H6C5.59 10.75 5.25 10.41 5.25 10C5.25 9.59 5.59 9.25 6 9.25H7.74001C8.47001 9.25 9.15999 9.56 9.64999 10.09C9.91999 10.39 10.12 10.74 10.23 11.13H22.72C23.73 11.13 24.66 11.53 25.34 12.25C26.01 12.98 26.35 13.93 26.27 14.94L25.73 22.44C25.62 24.27 24.02 25.75 22.19 25.75ZM10.28 12.62L9.5 22.02C9.45 22.6 9.64 23.15 10.03 23.58C10.42 24.01 10.96 24.24 11.54 24.24H22.19C23.23 24.24 24.17 23.36 24.25 22.32L24.79 14.82C24.83 14.23 24.64 13.67 24.25 13.26C23.86 12.84 23.32 12.61 22.73 12.61H10.28V12.62Z" fill="#1B1B1B"/>
<path d="M20.25 30.75C19.15 30.75 18.25 29.85 18.25 28.75C18.25 27.65 19.15 26.75 20.25 26.75C21.35 26.75 22.25 27.65 22.25 28.75C22.25 29.85 21.35 30.75 20.25 30.75ZM20.25 28.25C19.97 28.25 19.75 28.47 19.75 28.75C19.75 29.03 19.97 29.25 20.25 29.25C20.53 29.25 20.75 29.03 20.75 28.75C20.75 28.47 20.53 28.25 20.25 28.25Z" fill="#1B1B1B"/>
<path d="M12.25 30.75C11.15 30.75 10.25 29.85 10.25 28.75C10.25 27.65 11.15 26.75 12.25 26.75C13.35 26.75 14.25 27.65 14.25 28.75C14.25 29.85 13.35 30.75 12.25 30.75ZM12.25 28.25C11.97 28.25 11.75 28.47 11.75 28.75C11.75 29.03 11.97 29.25 12.25 29.25C12.53 29.25 12.75 29.03 12.75 28.75C12.75 28.47 12.53 28.25 12.25 28.25Z" fill="#1B1B1B"/>
<path d="M25 16.75H13C12.59 16.75 12.25 16.41 12.25 16C12.25 15.59 12.59 15.25 13 15.25H25C25.41 15.25 25.75 15.59 25.75 16C25.75 16.41 25.41 16.75 25 16.75Z" fill="#1B1B1B"/>
<rect x="20" width="12" height="12" rx="6" fill="#FF2423"/>
</svg>
