<svg width="8" height="7" viewBox="0 0 8 7" fill="none" xmlns="http://www.w3.org/2000/svg">
<path d="M4.214 3.916L5.32 5.092L6.3 6.464L5.572 6.996L4.564 5.638L3.794 4.224L4.004 4.07L4.214 3.916ZM3.794 3.916L4.004 4.07L4.214 4.224L3.444 5.638L2.436 6.996L1.708 6.464L2.688 5.092L3.794 3.916ZM1.008 2.628L2.632 3.132L4.088 3.818L4.004 4.07L3.92 4.322L2.338 4.014L0.742 3.482L1.008 2.628ZM4.466 0.78V2.474L4.27 4.07H4.004H3.738L3.542 2.474V0.78H4.466ZM7 2.628L7.266 3.482L5.67 4.014L4.088 4.322L4.004 4.07L3.92 3.818L5.376 3.132L7 2.628Z" fill="#F25453"/>
</svg>
